<svg width="55" height="57" viewBox="0 0 55 57" fill="none" xmlns="http://www.w3.org/2000/svg">
<circle cx="40.8938" cy="42.1" r="14" fill="#E4A220"/>
<path d="M20.8937 39.15C19.4356 39.1503 18.0309 38.6014 16.9592 37.6125C15.8876 36.6237 15.2278 35.2675 15.1111 33.814C11.2431 32.4448 7.98309 29.7532 5.90662 26.2141C3.83014 22.6751 3.0707 18.5163 3.76236 14.4718C4.45402 10.4273 6.55231 6.75713 9.68682 4.10925C12.8213 1.46136 16.7905 0.00597531 20.8937 1.82973e-07C25.2579 -0.000632351 29.463 1.63875 32.6752 4.59309C35.8874 7.54743 37.8721 11.601 38.2357 15.95C38.2479 16.1386 38.2206 16.3277 38.1557 16.5053C38.0908 16.6828 37.9897 16.8449 37.8588 16.9813C37.7279 17.1177 37.57 17.2253 37.3953 17.2974C37.2206 17.3695 37.0327 17.4044 36.8438 17.4C36.4553 17.3903 36.0844 17.2365 35.803 16.9685C35.5216 16.7005 35.3499 16.3375 35.3213 15.95C35.063 13.3859 34.126 10.937 32.6068 8.85536C31.0876 6.77372 29.0411 5.13456 26.6779 4.10665C24.3147 3.07874 21.7203 2.69921 19.1617 3.00714C16.6031 3.31507 14.1728 4.29932 12.121 5.85858C10.0692 7.41783 8.46999 9.49575 7.48807 11.8784C6.50615 14.2611 6.17697 16.8624 6.53442 19.4145C6.89188 21.9666 7.92304 24.3774 9.52177 26.3986C11.1205 28.4198 13.229 29.9784 15.6303 30.914C16.0672 29.9699 16.75 29.1607 17.6071 28.5712C18.4642 27.9817 19.4641 27.6335 20.5021 27.5632C21.54 27.493 22.5777 27.7031 23.5065 28.1717C24.4352 28.6403 25.2209 29.3501 25.7811 30.2267C26.3413 31.1032 26.6554 32.1143 26.6906 33.154C26.7257 34.1937 26.4806 35.2238 25.9809 36.1362C25.4811 37.0486 24.7452 37.8098 23.8502 38.34C22.9552 38.8703 21.934 39.15 20.8937 39.15ZM6.41985 31.9H6.68375C7.81475 33.0049 9.07045 33.9793 10.4305 34.8H6.41985C4.79295 34.8 3.49375 36.0963 3.49375 37.7C3.49375 41.4961 5.29755 44.3236 8.34545 46.2637C11.4484 48.2444 15.8622 49.3 20.8937 49.3C25.9252 49.3 30.339 48.2444 33.442 46.2637C36.487 44.3207 38.2937 41.499 38.2937 37.7C38.2937 36.9309 37.9882 36.1932 37.4444 35.6494C36.9005 35.1055 36.1629 34.8 35.3937 34.8H29.4748C29.6371 33.8401 29.6371 32.8599 29.4748 31.9H35.3937C36.932 31.9 38.4073 32.5111 39.495 33.5988C40.5827 34.6865 41.1937 36.1617 41.1937 37.7C41.1937 42.6039 38.778 46.3014 35.0022 48.7113C31.2844 51.0806 26.2732 52.2 20.8937 52.2C15.5142 52.2 10.503 51.0806 6.78525 48.7113C3.00945 46.3043 0.59375 42.601 0.59375 37.7C0.59375 34.4723 3.21245 31.9 6.41985 31.9ZM32.4937 17.4C32.4944 19.3623 31.9972 21.2926 31.0488 23.0104C30.1004 24.7282 28.7317 26.1774 27.0707 27.2223C26.2966 26.4416 25.3814 25.8148 24.3737 25.375C26.2056 24.5755 27.7064 23.1696 28.6236 21.3938C29.5408 19.6179 29.8186 17.5804 29.4102 15.6238C29.0019 13.6672 27.9323 11.9109 26.3813 10.6502C24.8303 9.38953 22.8925 8.70132 20.8937 8.70132C18.895 8.70132 16.9572 9.38953 15.4062 10.6502C13.8552 11.9109 12.7856 13.6672 12.3773 15.6238C11.9689 17.5804 12.2467 19.6179 13.1639 21.3938C14.0811 23.1696 15.5819 24.5755 17.4137 25.375C16.3987 25.8187 15.4852 26.448 14.7167 27.2223C12.514 25.837 10.8409 23.7514 9.96655 21.3005C9.52048 20.0485 9.2929 18.7291 9.29375 17.4C9.29375 14.3235 10.5159 11.373 12.6913 9.19756C14.8667 7.02214 17.8172 5.8 20.8937 5.8C23.9703 5.8 26.9208 7.02214 29.0962 9.19756C31.2716 11.373 32.4937 14.3235 32.4937 17.4Z" fill="black"/>
</svg>
