<svg width="53" height="39" viewBox="0 0 53 39" fill="none" xmlns="http://www.w3.org/2000/svg">
<circle cx="38.5938" cy="24.05" r="14" fill="#E4A220"/>
<path d="M29.0938 21.05C28.6959 21.05 28.3144 21.208 28.0331 21.4893C27.7518 21.7706 27.5938 22.1522 27.5938 22.55C27.5938 22.9478 27.7518 23.3293 28.0331 23.6106C28.3144 23.892 28.6959 24.05 29.0938 24.05H35.0938C35.4916 24.05 35.8731 23.892 36.1544 23.6106C36.4357 23.3293 36.5938 22.9478 36.5938 22.55C36.5938 22.1522 36.4357 21.7706 36.1544 21.4893C35.8731 21.208 35.4916 21.05 35.0938 21.05H29.0938ZM0.59375 7.54999C0.59375 5.56086 1.38393 3.65321 2.79045 2.24669C4.19697 0.840164 6.10463 0.0499878 8.09375 0.0499878H35.0938C37.0829 0.0499878 38.9905 0.840164 40.397 2.24669C41.8036 3.65321 42.5938 5.56086 42.5938 7.54999V22.55C42.5938 24.5391 41.8036 26.4468 40.397 27.8533C38.9905 29.2598 37.0829 30.05 35.0938 30.05H8.09375C6.10463 30.05 4.19697 29.2598 2.79045 27.8533C1.38393 26.4468 0.59375 24.5391 0.59375 22.55V7.54999ZM39.5938 9.04999V7.54999C39.5938 6.35651 39.1196 5.21192 38.2757 4.36801C37.4318 3.52409 36.2872 3.04999 35.0938 3.04999H8.09375C6.90028 3.04999 5.75568 3.52409 4.91177 4.36801C4.06786 5.21192 3.59375 6.35651 3.59375 7.54999V9.04999H39.5938ZM3.59375 12.05V22.55C3.59375 23.7435 4.06786 24.8881 4.91177 25.732C5.75568 26.5759 6.90028 27.05 8.09375 27.05H35.0938C36.2872 27.05 37.4318 26.5759 38.2757 25.732C39.1196 24.8881 39.5938 23.7435 39.5938 22.55V12.05H3.59375Z" fill="black"/>
</svg>
