<svg width="53" height="39" viewBox="0 0 53 39" fill="none" xmlns="http://www.w3.org/2000/svg">
<circle cx="38.5938" cy="24.0343" r="14" fill="#E4A220"/>
<path d="M40.1484 5.45327L21.4805 0.120069C21.2904 0.0655843 21.0909 0.051808 20.8951 0.0796396L2.41523 2.71987C1.74613 2.81828 1.13449 3.15334 0.691335 3.66423C0.248183 4.17511 0.00289571 4.82795 0 5.50425V25.5644C0.00289571 26.2407 0.248183 26.8935 0.691335 27.4044C1.13449 27.9153 1.74613 28.2504 2.41523 28.3488L20.8951 30.9855C20.9609 30.9958 21.0272 31.0016 21.0938 31.0031C21.2246 31.003 21.3547 30.9846 21.4805 30.9486L40.1484 25.6154C40.7339 25.4458 41.2489 25.0914 41.6164 24.6051C41.9839 24.1188 42.1842 23.5267 42.1875 22.9171V8.15151C42.1842 7.54197 41.9839 6.94983 41.6164 6.46352C41.2489 5.97721 40.7339 5.62282 40.1484 5.45327ZM15.4688 14.1281H12.6562V4.098L19.6875 3.09253V27.9761L12.6562 26.9707V16.9406H15.4688C15.8417 16.9406 16.1994 16.7924 16.4631 16.5287C16.7268 16.265 16.875 15.9073 16.875 15.5343C16.875 15.1614 16.7268 14.8037 16.4631 14.54C16.1994 14.2762 15.8417 14.1281 15.4688 14.1281ZM2.8125 5.50425L9.84375 4.49878V14.1281H7.03125C6.65829 14.1281 6.3006 14.2762 6.03688 14.54C5.77316 14.8037 5.625 15.1614 5.625 15.5343C5.625 15.9073 5.77316 16.265 6.03688 16.5287C6.3006 16.7924 6.65829 16.9406 7.03125 16.9406H9.84375V26.5699L2.8125 25.5644V5.50425ZM22.5 27.7318V3.33687L39.375 8.15151V22.9171L22.5 27.7318Z" fill="black"/>
</svg>
